<svg xmlns="http://www.w3.org/2000/svg" version="1.1" xmlns:xlink="http://www.w3.org/1999/xlink" xmlns:svgjs="http://svgjs.dev/svgjs" width="2000" height="2000" viewBox="0 0 2000 2000"><g transform="matrix(1,0,0,1,0,0)"><svg viewBox="0 0 280 280" data-background-color="#8c1010" preserveAspectRatio="xMidYMid meet" height="2000" width="2000" xmlns="http://www.w3.org/2000/svg" xmlns:xlink="http://www.w3.org/1999/xlink"><g id="tight-bounds" transform="matrix(1,0,0,1,0,0)"><svg viewBox="0 0 280 280" height="280" width="280"><g><svg viewBox="0 0 280 280" height="280" width="280"><g><svg viewBox="0 0 280 280" height="280" width="280"><g id="textblocktransform"><svg viewBox="0 0 280 280" height="280" width="280" id="textblock"><g><svg viewBox="0 0 280 280" height="280" width="280"><g transform="matrix(1,0,0,1,97.40407756857411,90.50252531694167)"><svg viewBox="0 0 85.19184486285177 98.99494936611667" height="98.99494936611667" width="85.19184486285177"><g id="icon-0"><svg xmlns="http://www.w3.org/2000/svg" xmlns:xlink="http://www.w3.org/1999/xlink" version="1.1" x="0" y="0" viewBox="2.96217666004358 2.78719752817596 64.08128218807998 74.46397358499999" enable-background="new 0 0 70 80" xml:space="preserve" height="98.99494936611667" width="85.19184486285177" class="icon-xg-0" data-fill-palette-color="accent" id="xg-0"><path d="M24.6 71.4c-5.4-0.2-8.1-0.3-13.6-0.7-0.7 0-1.2-0.6-1.3-1.3-1.1-19.7-1.1-39.5 0-59.2 0-0.7 0.6-1.2 1.3-1.3 16.1-1.2 32.3-1.2 48.4 0 0.7 0.1 1.2 0.6 1.3 1.3 0.6 10 0.9 20.1 0.8 30.1 0 0 0 0.8 0.5 1.5 1.5 1.5 2.3 2.2 3.8 3.7 1.4 1.3 1.2-0.8 1.2-0.8 0.2-12.7-0.3-25.5-1.3-38.2-0.1-1.3-1.2-2.5-2.4-2.6C44.1 2.4 25.6 2.4 6.4 4 5.2 4.1 4.2 5.3 4.1 6.6 2.6 28.8 2.6 50.7 4 73c0.1 1.3 1.2 2.5 2.4 2.6 9.1 1 13.6 1.3 22.7 1.5 0 0 2.6 0.1 1.1-1.5-1.3-1.3-1.9-2-3.2-3.3C27.1 72.3 26.3 71.5 24.6 71.4z" fill="#000000" data-fill-palette-color="accent"></path><path d="M26.9 65.9c-0.6-0.6-0.6-1.7 0-2.3 1.6-1.6 2.3-2.4 3.9-4 0.6-0.6 1.6-0.6 2.2 0 2.6 2.6 3.9 3.9 6.4 6.5 0.6 0.6 1.6 0.6 2.2 0 0 0 14.8-15.9 18-18.1 0.7-0.5 1.7-0.6 2.3-0.1 1.6 1.5 2.4 2.2 3.9 3.7 0.6 0.6 0.6 1.5-0.1 2.2C58.3 61.1 51 68.5 43.9 76c-1.9 1.6-5.4 1.7-7 0.1C33 72.1 31 70 26.9 65.9z" fill="#000000" data-fill-palette-color="accent"></path><path d="M55 20.7c0 0.7-0.5 1.2-1.2 1.2-12.6-0.4-25.3-0.4-37.9 0-0.7 0-1.2-0.5-1.2-1.2 0-1 0-1.5 0.1-2.4 0-0.7 0.6-1.2 1.3-1.3 12.5-0.5 25.1-0.5 37.6 0 0.7 0 1.2 0.6 1.3 1.3C55 19.3 55 19.8 55 20.7z" fill="#000000" data-fill-palette-color="accent"></path><path d="M55.2 32.2c0 0.7-0.5 1.2-1.2 1.2-12.8-0.1-25.5-0.1-38.3 0-0.7 0-1.2-0.5-1.2-1.2 0-1 0-1.5 0-2.4 0-0.7 0.6-1.2 1.2-1.2 12.7-0.3 25.4-0.3 38.2 0 0.7 0 1.2 0.6 1.2 1.2C55.2 30.8 55.2 31.3 55.2 32.2z" fill="#000000" data-fill-palette-color="accent"></path><path d="M55.3 43.7c0 0.7-0.6 1.2-1.2 1.2-12.8 0.1-25.5 0.1-38.3 0-0.7 0-1.2-0.6-1.2-1.2 0-1 0-1.5 0-2.4 0-0.7 0.6-1.2 1.2-1.2 12.8 0 25.6 0 38.3 0 0.7 0 1.2 0.5 1.2 1.2C55.3 42.3 55.3 42.8 55.3 43.7z" fill="#000000" data-fill-palette-color="accent"></path></svg></g></svg></g><g id="text-0"><path d="M28.106 110.66l-13.446-4.182-0.915 2.94-3.198-0.994 0.915-2.941-6.776-2.107 0.363-4.219 7.641 2.377 1.196-3.845 3.197 0.995-1.195 3.844 13.446 4.182z" fill="#000000" data-fill-palette-color="primary"></path><path d="M40.872 83.47c-0.806 1.345-1.869 2.397-3.19 3.154-1.327 0.754-2.785 1.12-4.375 1.098-1.595-0.026-3.185-0.513-4.769-1.462v0c-1.562-0.935-2.752-2.051-3.572-3.347-0.816-1.302-1.218-2.7-1.205-4.195 0.016-1.501 0.473-3.001 1.37-4.5v0c0.519-0.866 1.156-1.588 1.912-2.165 0.759-0.583 1.517-1.001 2.273-1.253 0.761-0.249 1.411-0.332 1.949-0.25v0l-2.472-1.574 2.007-3.351 14.954 8.955-1.992 3.326-2.677-1.523c0.565 0.842 0.852 1.927 0.86 3.257 0.011 1.339-0.346 2.615-1.073 3.83zM38.287 81.132c0.744-1.243 0.941-2.542 0.592-3.897-0.352-1.365-1.224-2.464-2.615-3.297v0l-0.222-0.133c-0.935-0.56-1.891-0.865-2.867-0.915-0.967-0.053-1.859 0.137-2.676 0.57-0.819 0.423-1.469 1.037-1.95 1.84v0c-0.829 1.385-1.023 2.729-0.58 4.033 0.447 1.297 1.388 2.376 2.825 3.236v0c1.454 0.87 2.854 1.202 4.202 0.995 1.351-0.213 2.448-1.024 3.291-2.432z" fill="#000000" data-fill-palette-color="primary"></path><path d="M61.065 58.535c-0.874 0.835-1.895 1.59-3.062 2.263-1.157 0.674-2.087 1.047-2.788 1.121v0l-1.244-3.278c1.834-0.282 3.455-1.096 4.863-2.441v0c1.412-1.349 1.726-2.435 0.941-3.256v0c-0.349-0.365-0.766-0.509-1.252-0.431-0.486 0.078-1.234 0.338-2.245 0.781v0l-1.416 0.609c-1.518 0.614-2.89 0.919-4.117 0.914-1.222 0-2.315-0.504-3.278-1.512v0c-1.102-1.153-1.511-2.485-1.227-3.997 0.288-1.516 1.191-2.999 2.709-4.449v0c0.749-0.716 1.565-1.339 2.446-1.869 0.877-0.525 1.631-0.842 2.264-0.949v0l1.184 3.375c-0.465-0.006-1.042 0.155-1.731 0.482-0.689 0.318-1.352 0.782-1.991 1.393v0c-1.302 1.244-1.576 2.26-0.823 3.047v0c0.422 0.442 0.914 0.611 1.475 0.506 0.571-0.104 1.381-0.396 2.431-0.875v0c0.09-0.05 0.47-0.22 1.139-0.51v0c1.608-0.664 2.976-0.973 4.103-0.928 1.127 0.044 2.126 0.523 2.998 1.435v0c1.189 1.244 1.62 2.638 1.294 4.182-0.336 1.543-1.227 3.005-2.673 4.387z" fill="#000000" data-fill-palette-color="primary"></path><path d="M81.27 31.57l10.727 5.585-4.193 2.366-5.877-3.218-1.814-1.208-0.765 3.269 2.537 4.496-3.438 1.939-13.711-24.304 3.403-1.919 7.516 13.324 1.385 2.617 1.965-10.046 4.401-2.482z" fill="#000000" data-fill-palette-color="primary"></path><path d="M125.797 28.127l-2.127-27.823 3.975-0.304 0.798 10.444 0.088 3.232c0.403-1.097 1.107-2.034 2.114-2.811 1.007-0.77 2.216-1.209 3.627-1.316v0c1.789-0.137 3.192 0.129 4.209 0.797 1.017 0.669 1.743 1.659 2.176 2.972 0.427 1.313 0.722 3.043 0.887 5.19v0l0.639 8.367-4.054 0.31-0.643-8.407c-0.112-1.464-0.279-2.604-0.501-3.42-0.229-0.822-0.606-1.43-1.129-1.823-0.53-0.393-1.262-0.553-2.196-0.481v0c-0.755 0.058-1.5 0.344-2.233 0.86-0.734 0.516-1.319 1.227-1.756 2.133-0.444 0.907-0.62 1.953-0.529 3.139v0l0.659 8.635z" fill="#000000" data-fill-palette-color="primary"></path><path d="M165.31 30.632c-1.533-0.329-2.871-0.996-4.015-2.002-1.142-1.013-1.959-2.275-2.45-3.786-0.49-1.518-0.541-3.181-0.154-4.987v0c0.382-1.78 1.054-3.267 2.016-4.46 0.969-1.192 2.163-2.023 3.582-2.494 1.426-0.469 2.993-0.52 4.701-0.154v0c0.987 0.212 1.876 0.582 2.667 1.112 0.797 0.531 1.436 1.113 1.919 1.746 0.481 0.64 0.77 1.228 0.865 1.765v0l0.692-2.848 3.82 0.819-3.653 17.043-3.791-0.812 0.577-3.026c-0.614 0.806-1.55 1.428-2.805 1.865-1.264 0.443-2.587 0.516-3.971 0.219zM166.689 27.432c1.416 0.304 2.709 0.071 3.88-0.697 1.178-0.773 1.937-1.953 2.277-3.538v0l0.054-0.253c0.228-1.065 0.209-2.068-0.058-3.01-0.262-0.933-0.73-1.716-1.403-2.349-0.665-0.639-1.455-1.056-2.371-1.252v0c-1.579-0.338-2.913-0.088-4.004 0.752-1.084 0.841-1.802 2.08-2.152 3.717v0c-0.355 1.657-0.217 3.089 0.414 4.299 0.637 1.21 1.759 1.987 3.363 2.331z" fill="#000000" data-fill-palette-color="primary"></path><path d="M190.27 38.57l7.887-15.543 3.653 1.853-1.547 3.048c0.888-0.853 1.901-1.39 3.04-1.608 1.13-0.216 2.214-0.061 3.251 0.465v0c0.723 0.367 1.186 0.687 1.39 0.962v0l-2.387 3.426c-0.132-0.238-0.536-0.529-1.212-0.872v0c-1.061-0.538-2.198-0.691-3.411-0.457-1.217 0.239-2.202 1.103-2.957 2.59v0l-4.055 7.99z" fill="#000000" data-fill-palette-color="primary"></path><path d="M218.762 58.565c-1.074-0.931-1.808-2.028-2.199-3.291-0.401-1.262-0.462-2.378-0.183-3.35v0l-2.077 2.275-2.982-2.584 18.274-21.089 3.043 2.637-7.036 8.119-2.089 2.106c0.988-0.48 2.193-0.583 3.617-0.307 1.414 0.276 2.676 0.894 3.785 1.856v0c1.3 1.127 2.183 2.402 2.647 3.823 0.459 1.418 0.495 2.873 0.107 4.366-0.384 1.488-1.174 2.922-2.37 4.302v0c-1.21 1.396-2.562 2.347-4.056 2.855-1.499 0.512-2.992 0.612-4.479 0.299-1.483-0.318-2.817-0.99-4.002-2.017zM220.481 55.531c1.245 1.079 2.545 1.511 3.901 1.297 1.355-0.215 2.579-0.952 3.671-2.213v0c1.114-1.285 1.686-2.61 1.716-3.973 0.03-1.363-0.588-2.593-1.854-3.689v0c-1.09-0.944-2.337-1.361-3.742-1.252-1.396 0.109-2.624 0.776-3.686 2.001v0l-0.176 0.204c-0.709 0.818-1.171 1.706-1.385 2.663-0.205 0.957-0.175 1.871 0.09 2.742 0.269 0.866 0.758 1.606 1.465 2.22z" fill="#000000" data-fill-palette-color="primary"></path><path d="M238.787 82.864c-0.969-1.517-1.486-3.079-1.551-4.686-0.068-1.612 0.279-3.111 1.041-4.497 0.768-1.389 1.866-2.54 3.294-3.452v0c1.405-0.898 2.896-1.409 4.472-1.533 1.571-0.121 3.073 0.189 4.508 0.928 1.431 0.734 2.638 1.87 3.621 3.41v0c0.98 1.534 1.501 3.102 1.562 4.702 0.057 1.595-0.297 3.083-1.062 4.464-0.775 1.378-1.865 2.516-3.271 3.414v0c-1.428 0.912-2.933 1.425-4.517 1.538-1.582 0.104-3.084-0.206-4.507-0.928-1.427-0.728-2.624-1.848-3.59-3.36zM241.66 81.159c0.791 1.237 1.874 1.921 3.25 2.051 1.373 0.124 2.75-0.255 4.133-1.139v0c1.388-0.887 2.314-2.018 2.775-3.394 0.456-1.372 0.282-2.687-0.523-3.947v0c-0.776-1.215-1.869-1.889-3.279-2.021-1.407-0.142-2.816 0.238-4.227 1.14v0c-1.36 0.869-2.253 1.996-2.678 3.379-0.425 1.383-0.242 2.694 0.549 3.931z" fill="#000000" data-fill-palette-color="primary"></path><path d="M249.844 104.334l16.534-5.517 1.296 3.886-3.242 1.082c1.231 0.016 2.329 0.347 3.294 0.992 0.956 0.641 1.618 1.512 1.986 2.615v0c0.257 0.769 0.361 1.322 0.312 1.66v0l-4.106 0.761c0.073-0.263-0.01-0.753-0.249-1.472v0c-0.376-1.128-1.078-2.036-2.106-2.722-1.034-0.685-2.342-0.763-3.924-0.235v0l-8.499 2.836z" fill="#000000" data-fill-palette-color="primary"></path><path d="M11.466 184.015l13.447-4.182-0.915-2.94 3.198-0.995 0.914 2.941 6.776-2.108 2.094 3.68-7.642 2.377 1.196 3.845-3.197 0.994-1.196-3.845-13.447 4.182z" fill="#000000" data-fill-palette-color="primary"></path><path d="M25.271 215.372c-0.806-1.345-1.23-2.779-1.274-4.302-0.039-1.526 0.327-2.984 1.097-4.374 0.776-1.394 1.956-2.565 3.541-3.515v0c1.562-0.935 3.107-1.458 4.637-1.568 1.533-0.105 2.955 0.201 4.267 0.918 1.315 0.722 2.422 1.833 3.32 3.333v0c0.519 0.866 0.854 1.769 1.006 2.708 0.155 0.945 0.166 1.81 0.032 2.594-0.14 0.788-0.373 1.401-0.701 1.837v0l2.555-1.437 2.007 3.352-14.955 8.955-1.991-3.326 2.606-1.642c-1.008 0.101-2.101-0.159-3.278-0.779-1.186-0.622-2.142-1.54-2.869-2.754zM28.552 214.197c0.744 1.243 1.796 2.03 3.157 2.361 1.369 0.334 2.749 0.084 4.14-0.748v0l0.222-0.133c0.935-0.56 1.655-1.258 2.161-2.096 0.503-0.828 0.757-1.704 0.761-2.628 0.013-0.922-0.221-1.785-0.702-2.588v0c-0.829-1.385-1.923-2.19-3.281-2.414-1.355-0.219-2.75 0.102-4.187 0.962v0c-1.454 0.87-2.407 1.949-2.86 3.234-0.45 1.292-0.254 2.642 0.589 4.05z" fill="#000000" data-fill-palette-color="primary"></path><path d="M48.503 244.112c-0.874-0.835-1.674-1.82-2.4-2.955-0.726-1.125-1.141-2.037-1.247-2.735v0l3.218-1.391c0.366 1.82 1.252 3.402 2.66 4.747v0c1.412 1.349 2.511 1.613 3.295 0.792v0c0.349-0.365 0.473-0.788 0.373-1.271-0.1-0.482-0.394-1.218-0.882-2.207v0l-0.673-1.387c-0.682-1.488-1.049-2.845-1.1-4.071-0.056-1.221 0.398-2.335 1.361-3.344v0c1.102-1.153 2.414-1.622 3.937-1.408 1.528 0.219 3.05 1.054 4.568 2.505v0c0.749 0.716 1.409 1.502 1.978 2.358 0.565 0.852 0.915 1.591 1.052 2.218v0l-3.318 1.337c-0.015-0.465-0.202-1.034-0.561-1.707-0.349-0.673-0.843-1.315-1.481-1.926v0c-1.302-1.244-2.329-1.472-3.082-0.684v0c-0.422 0.442-0.568 0.941-0.438 1.497 0.13 0.566 0.459 1.362 0.984 2.389v0c0.054 0.088 0.241 0.46 0.562 1.115v0c0.736 1.576 1.108 2.928 1.114 4.055 0.007 1.128-0.426 2.148-1.298 3.061v0c-1.189 1.244-2.561 1.738-4.118 1.482-1.557-0.265-3.058-1.089-4.504-2.47z" fill="#000000" data-fill-palette-color="primary"></path><path d="M82.668 255.452l0.766 12.07-4.192-2.365-0.286-6.695 0.096-2.177-3.193 1.036-2.537 4.496-3.437-1.939 13.711-24.304 3.403 1.919-7.517 13.324-1.524 2.539 9.614-3.513 4.401 2.483z" fill="#000000" data-fill-palette-color="primary"></path><path d="M124.469 278.748l2.126-27.824 3.975 0.304-0.798 10.444-0.405 3.207c0.565-1.023 1.403-1.842 2.517-2.456 1.113-0.608 2.374-0.858 3.785-0.75v0c1.789 0.137 3.135 0.613 4.039 1.428 0.904 0.815 1.47 1.905 1.699 3.268 0.222 1.363 0.251 3.118 0.088 5.264v0l-0.64 8.367-4.054-0.31 0.642-8.407c0.112-1.464 0.12-2.616 0.025-3.456-0.102-0.847-0.381-1.505-0.839-1.973-0.464-0.469-1.163-0.739-2.097-0.81v0c-0.755-0.058-1.535 0.113-2.338 0.511-0.803 0.398-1.49 1.012-2.06 1.841-0.576 0.829-0.91 1.836-1 3.022v0l-0.66 8.636z" fill="#000000" data-fill-palette-color="primary"></path><path d="M169.121 276.647c-1.533 0.329-3.027 0.268-4.483-0.181-1.457-0.456-2.719-1.272-3.786-2.45-1.069-1.184-1.797-2.679-2.185-4.485v0c-0.382-1.78-0.378-3.412 0.011-4.894 0.395-1.484 1.144-2.732 2.245-3.743 1.108-1.012 2.516-1.701 4.225-2.068v0c0.987-0.212 1.95-0.238 2.888-0.079 0.944 0.158 1.766 0.427 2.466 0.807 0.701 0.386 1.205 0.805 1.513 1.255v0l-0.536-2.881 3.82-0.819 3.653 17.043-3.791 0.813-0.713-2.997c-0.23 0.987-0.828 1.937-1.795 2.852-0.971 0.922-2.149 1.531-3.532 1.827zM169.067 273.163c1.416-0.304 2.501-1.046 3.253-2.227 0.758-1.188 0.967-2.575 0.627-4.16v0l-0.054-0.253c-0.228-1.065-0.657-1.972-1.286-2.721-0.621-0.743-1.369-1.266-2.243-1.568-0.868-0.31-1.76-0.367-2.676-0.171v0c-1.579 0.338-2.693 1.114-3.344 2.328-0.644 1.212-0.791 2.636-0.439 4.273v0c0.355 1.657 1.068 2.907 2.139 3.751 1.078 0.843 2.419 1.092 4.023 0.747z" fill="#000000" data-fill-palette-color="primary"></path><path d="M198.155 266.469l-7.887-15.543 3.652-1.854 1.547 3.048c-0.165-1.22 0.001-2.355 0.497-3.403 0.493-1.04 1.258-1.823 2.295-2.349v0c0.723-0.367 1.255-0.551 1.597-0.554v0l1.356 3.95c-0.271-0.034-0.744 0.12-1.419 0.463v0c-1.061 0.538-1.855 1.366-2.383 2.483-0.525 1.123-0.41 2.429 0.344 3.916v0l4.054 7.99z" fill="#000000" data-fill-palette-color="primary"></path><path d="M230.671 244.677c-1.074 0.931-2.264 1.501-3.57 1.709-1.306 0.218-2.42 0.119-3.342-0.296v0l1.957 2.38-2.983 2.584-18.275-21.088 3.043-2.637 7.036 8.119 1.788 2.368c-0.335-1.046-0.265-2.254 0.209-3.624 0.474-1.36 1.266-2.521 2.376-3.483v0c1.3-1.127 2.688-1.819 4.161-2.076 1.469-0.253 2.914-0.081 4.336 0.515 1.418 0.591 2.725 1.577 3.922 2.958v0c1.21 1.396 1.959 2.869 2.249 4.421 0.294 1.556 0.18 3.048-0.341 4.476-0.526 1.423-1.381 2.647-2.566 3.674zM227.912 242.544c1.245-1.079 1.858-2.305 1.839-3.677-0.02-1.372-0.576-2.688-1.668-3.948v0c-1.114-1.285-2.343-2.04-3.689-2.263-1.345-0.223-2.65 0.213-3.915 1.309v0c-1.09 0.944-1.68 2.12-1.771 3.526-0.09 1.397 0.395 2.708 1.456 3.934v0l0.177 0.203c0.709 0.818 1.522 1.402 2.439 1.75 0.918 0.339 1.827 0.439 2.727 0.301 0.896-0.143 1.698-0.522 2.405-1.135z" fill="#000000" data-fill-palette-color="primary"></path><path d="M254.11 216.426c-0.969 1.517-2.17 2.643-3.6 3.376-1.434 0.739-2.94 1.054-4.519 0.945-1.584-0.113-3.089-0.626-4.516-1.538v0c-1.405-0.898-2.495-2.036-3.271-3.414-0.769-1.375-1.12-2.868-1.052-4.48 0.065-1.607 0.589-3.18 1.573-4.719v0c0.98-1.534 2.184-2.665 3.611-3.394 1.424-0.722 2.922-1.026 4.497-0.911 1.576 0.124 3.067 0.635 4.472 1.533v0c1.428 0.912 2.525 2.063 3.293 3.453 0.759 1.392 1.109 2.885 1.052 4.48-0.061 1.601-0.575 3.157-1.54 4.669zM251.356 214.536c0.791-1.237 0.956-2.508 0.495-3.811-0.464-1.298-1.387-2.388-2.77-3.272v0c-1.388-0.887-2.804-1.251-4.246-1.092-1.436 0.162-2.557 0.874-3.361 2.133v0c-0.776 1.215-0.928 2.49-0.457 3.824 0.463 1.336 1.4 2.455 2.811 3.357v0c1.36 0.869 2.758 1.206 4.191 1.01 1.434-0.196 2.546-0.912 3.337-2.149z" fill="#000000" data-fill-palette-color="primary"></path><path d="M266.374 190.681l-16.534-5.517 1.296-3.886 3.243 1.082c-0.975-0.752-1.654-1.676-2.038-2.771-0.38-1.086-0.386-2.181-0.018-3.283v0c0.257-0.769 0.506-1.274 0.747-1.516v0l3.74 1.857c-0.216 0.166-0.445 0.608-0.684 1.327v0c-0.376 1.128-0.36 2.275 0.049 3.441 0.416 1.168 1.414 2.016 2.997 2.545v0l8.498 2.835z" fill="#000000" data-fill-palette-color="primary"></path><path d="M3.767 144.75c0-5.887 4.772-10.66 10.659-10.66 5.887 0 10.66 4.772 10.66 10.66 0 5.887-4.772 10.66-10.66 10.659-5.887 0-10.66-4.772-10.659-10.659z" fill="#000000" data-fill-palette-color="primary"></path><path d="M254.914 144.75c0-5.887 4.772-10.66 10.66-10.66 5.887 0 10.66 4.772 10.659 10.66 0 5.887-4.772 10.66-10.659 10.659-5.887 0-10.66-4.772-10.66-10.659z" fill="#000000" data-fill-palette-color="primary"></path></g><g id="text-1"></g></svg></g></svg></g></svg></g></svg></g><defs></defs></svg><rect width="280" height="280" fill="none" stroke="none" visibility="hidden"></rect></g></svg></g></svg>